{"title":"Up(2009) m-HD 480p ACE Hindi Dubbed-=MTR=-","uid":6434918,"size":529666593,"categoryP":"video","categoryS":"hd___movies","magnet":"?xt=urn:btih:3d0b6d28303fedc5fe1edd73485676fa42ce5942&amp;dn=Up%282009%29+m-HD+480p+ACE+Hindi+Dubbed-%3DMTR%3D-&amp;tr=udp%3A%2F%2Ftracker.openbittorrent.com%3A80&amp;tr=udp%3A%2F%2Fopen.demonii.com%3A1337&amp;tr=udp%3A%2F%2Ftracker.coppersurfer.tk%3A6969&amp;tr=udp%3A%2F%2Fexodus.desync.com%3A6969","seeders":0,"leechers":1,"uploader":"HDvideos","files":4,"time":1306777265,"description":"Up(2009) m-HD 480p ACE Hindi Dubbed-=MTR=-\n &lt;a href=&quot;\nhttp://www.shotpix.com/images/66216546627759662933.jpg&quot; rel=&quot;nofollow&quot; target=&quot;_NEW&quot;&gt;\nhttp://www.shotpix.com/images/66216546627759662933.jpg&lt;/a&gt;\n\nCheck out MY latest Uploads:\n &lt;a href=&quot;\nhttp://thepiratebay.se/user/HDvideos/0/7&quot; rel=&quot;nofollow&quot; target=&quot;_NEW&quot;&gt;\nhttp://thepiratebay.se/user/HDvideos/0/7&lt;/a&gt;\n\nStay updated with us....\n\nSeed after downloading....\n\nEnjoY with HDvideos..\n\nTorrent From Mastitorrents\n\nTeam Mastitorrents\n\nSay thanks if u like my posts\n\nGive ur valuable feedbacks\n\nQuality Uploads from HDvideos\n\nCredits to Original Ripper\n\nFormat                          : Matroska\nFile size                       : 495 MiB\nDuration                        : 1h 32mn\nOverall bit rate                : 751 Kbps\nEncoded date                    : UTC 2011-05-29 00:19:09\nWriting application             : mkvmerge v4.6.0 ('Still Crazy After All These Years') built on Mar 10 2011 02:50:32\nWriting library                 : libebml v1.2.0 + libmatroska v1.1.0\n\nVideo\nID                              : 1\nFormat                          : AVC\nFormat/Info                     : Advanced Video Codec\nFormat profile                  : High****************L3.1\nFormat settings, CABAC          : Yes\nFormat settings, ReFrames       : 5 frames\nCodec ID                        : V_MPEG4/ISO/AVC\nDuration                        : 1h 32mn\nBit rate                        : 685 Kbps\nWidth                           : 848 pixels\nHeight                          : 368 pixels\nDisplay aspect ratio            : 2.35:1\nFrame rate                      : 23.976 fps\nColor space                     : YUV\nChroma subsampling              : 4:2:0\nBit depth                       : 8 bits\nScan type                       : Progressive\nBits/(Pixel*Frame)              : 0.092\nStream size                     : 443 MiB (89%)\nWriting library                 : x264 core 114 r1924 08d04a4\nEncoding settings               : cabac=1 / ref=5 / deblock=1:-1:-1 / analyse=0x3:0x133 / me=umh / subme=8 / psy=1 / psy_rd=1.00:0.00 / mixed_ref=1 / me_range=24 / chroma_me=1 / trellis=2 / 8x8dct=1 / cqm=0 / deadzone=21,11 / fast_pskip=1 / chroma_qp_offset=-2 / threads=3 / sliced_threads=0 / nr=0 / decimate=1 / interlaced=0 / constrained_intra=0 / bframes=3 / b_pyramid=2 / b_adapt=2 / b_bias=0 / direct=3 / weightb=1 / open_gop=0 / weightp=2 / keyint=250 / keyint_min=23 / scenecut=40 / intra_refresh=0 / rc_lookahead=50 / rc=2pass / mbtree=1 / bitrate=685 / ratetol=1.0 / qcomp=0.60 / qpmin=10 / qpmax=69 / qpstep=4 / cplxblur=20.0 / qblur=0.5 / ip_ratio=1.40 / aq=1:1.00\n\nAudio\nID                              : 2\nFormat                          : AC-3\nFormat/Info                     : Audio Coding 3\nMode extension                  : CM (complete main)\nCodec ID                        : A_AC3\nDuration                        : 1h 32mn\nBit rate mode                   : Constant\nBit rate                        : 64.0 Kbps\nChannel(s)                      : 2 channels\nChannel positions               : Front: L R\nSampling rate                   : 48.0 KHz\nBit depth                       : 16 bits\nCompression mode                : Lossy\nDelay relative to video         : 1s 100ms\nStream size                     : 42.2 MiB (9%)","torrent":{"xt":"urn:btih:3d0b6d28303fedc5fe1edd73485676fa42ce5942","amp;dn":"Up%282009%29+m-HD+480p+ACE+Hindi+Dubbed-%3DMTR%3D-","amp;tr":["udp%3A%2F%2Ftracker.openbittorrent.com%3A80","udp%3A%2F%2Fopen.demonii.com%3A1337","udp%3A%2F%2Ftracker.coppersurfer.tk%3A6969","udp%3A%2F%2Fexodus.desync.com%3A6969"],"infoHash":"3d0b6d28303fedc5fe1edd73485676fa42ce5942","infoHashBuffer":{"type":"Buffer","data":[61,11,109,40,48,63,237,197,254,30,221,115,72,86,118,250,66,206,89,66]},"announce":[],"urlList":[]}}